
<svg xmlns="http://www.w3.org/2000/svg" version="1.1" xmlns:xlink="http://www.w3.org/1999/xlink" preserveAspectRatio="none" x="0px" y="0px" width="640px" height="480px" viewBox="0 0 640 480">
<defs>
<g id="circle_0_Layer0_0_FILL">
<path fill="#CCE6D7" stroke="none" d="
M 3.5 -3.55
Q 2.05 -5 0 -5 -2.05 -5 -3.55 -3.55 -5 -2.05 -5 0 -5 2.05 -3.55 3.5 -3.3 3.75 -3 3.95 -1.75 5 -0.05 5
L 0.1 5
Q 1.75 5 3 3.95 3.25 3.75 3.5 3.5 5 2.05 5 0 5 -2.05 3.5 -3.55 Z"/>
</g>

<g id="egg_0_Layer0_0_FILL">
<path fill="#CCE6D7" stroke="none" d="
M 7.05 -2.95
Q 10 -5.85 10 -10 10 -14.05 9.3 -17.5 8.55 -21.15 7.05 -24.2 4.15 -30 0 -30 -4.15 -30 -7.1 -24.2 -9.6 -19.05 -9.95 -12.1 -10 -11.1 -10 -10 -10 -5.85 -7.1 -2.95 -4.15 0 0 0 4.15 0 7.05 -2.95 Z"/>
</g>

<path id="person_0_Layer0_0_1_STROKES" stroke="#000000" stroke-width="1" stroke-linejoin="round" stroke-linecap="round" fill="none" d="
M 2.1 -2.5
L 2.2 0
M -2.1 -2.5
L -2.2 0"/>

<path id="circle_0_Layer0_0_1_STROKES" stroke="#000000" stroke-width="1" stroke-linejoin="round" stroke-linecap="round" fill="none" d="
M 5 0
Q 5 2.05 3.5 3.5 3.25 3.75 3 3.95 1.75 5 0.1 5
L -0.05 5
Q -1.75 5 -3 3.95 -3.3 3.75 -3.55 3.5 -5 2.05 -5 0 -5 -2.05 -3.55 -3.55 -2.05 -5 0 -5 2.05 -5 3.5 -3.55 5 -2.05 5 0 Z"/>

<path id="animal_0_Layer0_0_1_STROKES" stroke="#000000" stroke-width="1" stroke-linejoin="round" stroke-linecap="round" fill="none" d="
M 3.1 -2.6
L 3.1 0
M -3.25 -2.7
L -3.25 0"/>

<path id="house_0_Layer0_0_1_STROKES" stroke="#000000" stroke-width="1" stroke-linejoin="round" stroke-linecap="round" fill="none" d="
M 13.85 -20
L -0.1 -30 -13.85 -20
M 9.9 -20
L 9.9 0
M -10.1 0
L -10.1 -20"/>

<path id="egg_0_Layer0_0_1_STROKES" stroke="#000000" stroke-width="1" stroke-linejoin="round" stroke-linecap="round" fill="none" d="
M 10 -10
Q 10 -5.85 7.05 -2.95 4.15 0 0 0 -4.15 0 -7.1 -2.95 -10 -5.85 -10 -10 -10 -11.1 -9.95 -12.1 -9.6 -19.05 -7.1 -24.2 -4.15 -30 0 -30 4.15 -30 7.05 -24.2 8.55 -21.15 9.3 -17.5 10 -14.05 10 -10 Z"/>
</defs>

<g id="Layer_1">
<g transform="matrix( 1, 0, 0, 1, 315,180) ">
<g transform="matrix( 1, 0, 0, 1, 0,0) ">
<use xlink:href="#person_0_Layer0_0_1_STROKES"/>
</g>

<g transform="matrix( 1, 0, 0, 1, 0,-7) ">
<g transform="matrix( 1, 0, 0, 1, 0,0) ">
<use xlink:href="#circle_0_Layer0_0_FILL"/>

<use xlink:href="#circle_0_Layer0_0_1_STROKES"/>
</g>
</g>

<g transform="matrix( 1, 0, 0, 1, 0,-15) ">
<g transform="matrix( 1, 0, 0, 1, 0,0) ">
<use xlink:href="#circle_0_Layer0_0_FILL"/>

<use xlink:href="#circle_0_Layer0_0_1_STROKES"/>
</g>
</g>
</g>

<g transform="matrix( 1, 0, 0, 1, 335,180) ">
<g transform="matrix( 1, 0, 0, 1, 0,0) ">
<use xlink:href="#animal_0_Layer0_0_1_STROKES"/>
</g>

<g transform="matrix( 1, 0, 0, 1, 0,-7) ">
<g transform="matrix( 1, 0, 0, 1, 0,0) ">
<use xlink:href="#circle_0_Layer0_0_FILL"/>

<use xlink:href="#circle_0_Layer0_0_1_STROKES"/>
</g>
</g>
</g>

<g transform="matrix( 1, 0, 0, 1, 295,180) ">
<g transform="matrix( 1, 0, 0, 1, 0,0) ">
<use xlink:href="#person_0_Layer0_0_1_STROKES"/>
</g>

<g transform="matrix( 1, 0, 0, 1, 0,-7) ">
<g transform="matrix( 1, 0, 0, 1, 0,0) ">
<use xlink:href="#circle_0_Layer0_0_FILL"/>

<use xlink:href="#circle_0_Layer0_0_1_STROKES"/>
</g>
</g>

<g transform="matrix( 1, 0, 0, 1, 0,-15) ">
<g transform="matrix( 1, 0, 0, 1, 0,0) ">
<use xlink:href="#circle_0_Layer0_0_FILL"/>

<use xlink:href="#circle_0_Layer0_0_1_STROKES"/>
</g>
</g>
</g>

<g transform="matrix( 1, 0, 0, 1, 250.1,180) ">
<g transform="matrix( 1, 0, 0, 1, 0,0) ">
<use xlink:href="#house_0_Layer0_0_1_STROKES"/>
</g>
</g>

<g transform="matrix( 1, 0, 0, 1, 210,180) ">
<g transform="matrix( 1, 0, 0, 1, 0,0) ">
<use xlink:href="#egg_0_Layer0_0_FILL"/>

<use xlink:href="#egg_0_Layer0_0_1_STROKES"/>
</g>
</g>
</g>
</svg>
